<?xml version="1.0" standalone="no"?>
<svg xmlns:xlink="http://www.w3.org/1999/xlink" id="wave" style="transform:rotate(180deg); transition: 0.3s" viewBox="0 0 1440 250" version="1.1" xmlns="http://www.w3.org/2000/svg"><defs><linearGradient id="sw-gradient-0" x1="0" x2="0" y1="1" y2="0"><stop stop-color="rgba(90, 90, 254, 1)" offset="0%"/><stop stop-color="rgba(129.331, 136.287, 166.526, 1)" offset="100%"/></linearGradient></defs><path style="transform:translate(0, 0px); opacity:1" fill="url(#sw-gradient-0)" d="M0,0L48,0C96,0,192,0,288,12.5C384,25,480,50,576,87.5C672,125,768,175,864,191.7C960,208,1056,192,1152,158.3C1248,125,1344,75,1440,75C1536,75,1632,125,1728,133.3C1824,142,1920,108,2016,91.7C2112,75,2208,75,2304,87.5C2400,100,2496,125,2592,125C2688,125,2784,100,2880,100C2976,100,3072,125,3168,125C3264,125,3360,100,3456,79.2C3552,58,3648,42,3744,62.5C3840,83,3936,142,4032,145.8C4128,150,4224,100,4320,75C4416,50,4512,50,4608,50C4704,50,4800,50,4896,62.5C4992,75,5088,100,5184,104.2C5280,108,5376,92,5472,70.8C5568,50,5664,25,5760,25C5856,25,5952,50,6048,66.7C6144,83,6240,92,6336,79.2C6432,67,6528,33,6624,37.5C6720,42,6816,83,6864,104.2L6912,125L6912,250L6864,250C6816,250,6720,250,6624,250C6528,250,6432,250,6336,250C6240,250,6144,250,6048,250C5952,250,5856,250,5760,250C5664,250,5568,250,5472,250C5376,250,5280,250,5184,250C5088,250,4992,250,4896,250C4800,250,4704,250,4608,250C4512,250,4416,250,4320,250C4224,250,4128,250,4032,250C3936,250,3840,250,3744,250C3648,250,3552,250,3456,250C3360,250,3264,250,3168,250C3072,250,2976,250,2880,250C2784,250,2688,250,2592,250C2496,250,2400,250,2304,250C2208,250,2112,250,2016,250C1920,250,1824,250,1728,250C1632,250,1536,250,1440,250C1344,250,1248,250,1152,250C1056,250,960,250,864,250C768,250,672,250,576,250C480,250,384,250,288,250C192,250,96,250,48,250L0,250Z"/></svg>